<?xml version="1.0" encoding="utf-8"?>
<!-- Generator: Adobe Illustrator 18.1.1, SVG Export Plug-In . SVG Version: 6.00 Build 0)  -->
<svg version="1.1" id="Ebene_1" xmlns="http://www.w3.org/2000/svg" xmlns:xlink="http://www.w3.org/1999/xlink" x="0px" y="0px"
	 width="44px" height="44px" viewBox="0 0 44 44" enable-background="new 0 0 44 44" xml:space="preserve">
<g id="Facebook_Square" display="none">
	<g display="inline">
		<path fill="#3979B9" d="M24,17.3c0-0.8,0.1-1.2,1.3-1.2H27v-3h-2.7c-3.2,0-4.3,1.5-4.3,4v2h-2v3h2v9h4v-9h2.7l0.4-3h-3L24,17.3z
			 M40,0H4C1.8,0,0,1.8,0,4v36c0,2.2,1.8,4,4,4h36c2.2,0,4-1.8,4-4V4C44,1.8,42.2,0,40,0z M42,40c0,1.1-0.9,2-2,2H4
			c-1.1,0-2-0.9-2-2V4c0-1.1,0.9-2,2-2h36c1.1,0,2,0.9,2,2V40z"/>
	</g>
</g>
<g id="facebook_geteilt">
	<path fill-rule="evenodd" clip-rule="evenodd" fill="#E2001A" d="M26.6,22H24v9h-4v-9h-2v-3h2v-2c0-2.5,1.1-4,4.3-4H27v3h-1.7
		c-1.2,0-1.3,0.4-1.3,1.2l0,1.7h3L26.6,22z"/>
	<path fill-rule="evenodd" clip-rule="evenodd" fill="#009EE0" d="M40,0H4C1.8,0,0,1.8,0,4v36c0,2.2,1.8,4,4,4h36c2.2,0,4-1.8,4-4V4
		C44,1.8,42.2,0,40,0z M42,40c0,1.1-0.9,2-2,2H4c-1.1,0-2-0.9-2-2V4c0-1.1,0.9-2,2-2h36c1.1,0,2,0.9,2,2V40z"/>
</g>
</svg>
