<?xml version="1.0" encoding="utf-8"?>
<!-- Generator: Adobe Illustrator 18.1.1, SVG Export Plug-In . SVG Version: 6.00 Build 0)  -->
<svg version="1.1" id="Ebene_1" xmlns="http://www.w3.org/2000/svg" xmlns:xlink="http://www.w3.org/1999/xlink" x="0px" y="0px"
	 width="44px" height="44px" viewBox="0 0 44 44" enable-background="new 0 0 44 44" xml:space="preserve">
<g id="Twitter_Square">
	<g>
		<path fill="#3979B9" d="M32.4,14.3c-0.8,0.5-1.7,0.8-2.6,1c-0.7-0.8-1.8-1.3-3-1.3c-2.3,0-4.1,1.8-4.1,4c0,0.3,0,0.6,0.1,0.9
			c-3.4-0.2-6.4-1.8-8.5-4.2c-0.4,0.6-0.6,1.3-0.6,2c0,1.4,0.7,2.6,1.8,3.4c-0.7,0-1.3-0.2-1.9-0.5c0,0,0,0,0,0.1c0,2,1.4,3.6,3.3,4
			c-0.3,0.1-0.7,0.1-1.1,0.1c-0.3,0-0.5,0-0.8-0.1c0.5,1.6,2,2.8,3.8,2.8c-1.4,1.1-3.2,1.7-5.1,1.7c-0.3,0-0.7,0-1-0.1
			c1.8,1.1,4,1.8,6.3,1.8C26.8,30,31,23.8,31,18.5c0-0.2,0-0.3,0-0.5c0.8-0.6,1.5-1.3,2-2.1c-0.7,0.3-1.5,0.5-2.4,0.6
			C31.5,16,32.1,15.2,32.4,14.3z M40,0H4C1.8,0,0,1.8,0,4v36c0,2.2,1.8,4,4,4h36c2.2,0,4-1.8,4-4V4C44,1.8,42.2,0,40,0z M42,40
			c0,1.1-0.9,2-2,2H4c-1.1,0-2-0.9-2-2V4c0-1.1,0.9-2,2-2h36c1.1,0,2,0.9,2,2V40z"/>
	</g>
</g>
</svg>
